<svg width="500" height="500" fill="none" xmlns="http://www.w3.org/2000/svg"><g clip-path="url(#clip0)"><circle cx="250" cy="250" r="250" fill="#fff"/><path fill-rule="evenodd" clip-rule="evenodd" d="M119.047 463c-.417-.257-.833-.515-1.248-.774-11.984-7.481-23.288-15.949-33.799-25.289C32.4673 391.143 0 324.363 0 250c0-16.342 1.56809-32.319 4.56203-47.786.16788-.868.34025-1.734.51708-2.598 3.50721-17.139 8.76829-33.639 15.58759-49.305C59.1734 61.8496 147.364 0 250 0c46.326 0 89.709 12.6003 126.908 34.5608.047.0272.093.0545.139.0817C390.953 42.864 403.994 52.3941 416 63.0632 467.533 108.858 500 175.637 500 250c0 11.199-.736 22.226-2.163 33.035-.016.123-.033.246-.049.368-2.898 21.705-8.581 42.529-16.678 62.1C443.592 436.193 354.248 500 250 500c-48.015 0-92.868-13.536-130.953-37zM215 472.294V160.77l-24 7.798V94.9661l145-47.1134v73.6023l-51 16.571v334.268c70.88-11.071 130.798-55.23 163.456-116.181L346 389.403V46.4494C316.883 32.6929 284.34 25 250 25 165.898 25 92.574 71.1425 53.962 139.492L181 98.2153v73.6027l-27 8.772v272.961c19.022 8.987 39.507 15.386 61 18.743zm258.702-197.986C474.56 266.323 475 258.213 475 250c0-58.542-22.358-111.862-59-151.8868V293.056l57.702-18.748zM26.7324 221.942C25.589 231.134 25 240.498 25 250c0 58.542 22.3576 111.862 59 151.887V203.335l-57.2676 18.607z" fill="#F15A24"/></g><defs><clipPath id="clip0"><rect width="500" height="500" fill="#fff"/></clipPath></defs></svg>
